<svg width="21" height="21" viewBox="0 0 21 21" fill="none" xmlns="http://www.w3.org/2000/svg">
<path d="M18.8374 5.46211L13.8374 5.45972" stroke="#3D5278" stroke-width="0.594436" stroke-miterlimit="10" stroke-linecap="round" stroke-linejoin="round"/>
<path d="M5.50411 5.4557L2.17078 5.4541" stroke="#3D5278" stroke-width="0.594436" stroke-miterlimit="10" stroke-linecap="round" stroke-linejoin="round"/>
<path d="M8.83611 8.37391C10.4469 8.37468 11.7534 7.06947 11.7542 5.45864C11.7549 3.84781 10.4497 2.54135 8.83891 2.54058C7.22808 2.53981 5.92162 3.84502 5.92084 5.45585C5.92007 7.06668 7.22528 8.37314 8.83611 8.37391Z" stroke="#3D5278" stroke-width="0.594436" stroke-miterlimit="10" stroke-linecap="round" stroke-linejoin="round"/>
<path d="M18.8331 14.6288L15.4998 14.6272" stroke="#3D5278" stroke-width="0.594436" stroke-miterlimit="10" stroke-linecap="round" stroke-linejoin="round"/>
<path d="M7.16638 14.6231L2.16638 14.6207" stroke="#3D5278" stroke-width="0.594436" stroke-miterlimit="10" stroke-linecap="round" stroke-linejoin="round"/>
<path d="M12.165 17.5422C13.7758 17.543 15.0823 16.2378 15.083 14.627C15.0838 13.0161 13.7786 11.7097 12.1678 11.7089C10.5569 11.7081 9.25047 13.0134 9.2497 14.6242C9.24893 16.235 10.5541 17.5415 12.165 17.5422Z" stroke="#3D5278" stroke-width="0.594436" stroke-miterlimit="10" stroke-linecap="round" stroke-linejoin="round"/>
</svg>
