<svg width="57" height="11" viewBox="0 0 57 11" fill="none" xmlns="http://www.w3.org/2000/svg">
<path d="M0.5745 9.9832L0.625024 0.535759L2.27357 0.544575L5.7859 5.36964L4.99967 5.36544L8.48732 0.577805L10.1359 0.586621L10.0853 10.0341L8.34803 10.0248L8.38804 2.54291L9.05926 2.71135L5.44493 7.47295L5.24204 7.47186L1.76761 2.67236L2.33915 2.51056L2.29913 9.99242L0.5745 9.9832ZM16.9428 10.2229C16.2496 10.2192 15.6035 10.0932 15.0046 9.84478C14.4057 9.5964 13.8833 9.25121 13.4376 8.8092C12.9919 8.36719 12.6438 7.84962 12.3934 7.25648C12.1514 6.65493 12.0323 6.00753 12.036 5.3143C12.0397 4.61261 12.1658 3.96653 12.4141 3.37605C12.6625 2.78558 13.0118 2.27173 13.4622 1.83452C13.9127 1.3973 14.4386 1.06194 15.0401 0.828434C15.6417 0.586476 16.2933 0.467373 16.995 0.471126C17.6967 0.474878 18.347 0.600943 18.9459 0.849322C19.5448 1.0977 20.0672 1.44289 20.5129 1.8849C20.9586 2.31846 21.3025 2.83178 21.5445 3.42488C21.795 4.01802 21.9183 4.66544 21.9146 5.36713C21.9109 6.06036 21.7806 6.70642 21.5238 7.3053C21.267 7.89573 20.9134 8.40956 20.463 8.84677C20.0126 9.28399 19.4866 9.62358 18.885 9.86553C18.2919 10.1075 17.6445 10.2267 16.9428 10.2229ZM16.9512 8.65045C17.4162 8.65294 17.8436 8.57491 18.2333 8.41636C18.6231 8.24936 18.9625 8.01868 19.2516 7.72432C19.549 7.43001 19.7749 7.08037 19.9293 6.67538C20.0921 6.27045 20.1747 5.83126 20.1773 5.35784C20.1798 4.88441 20.1018 4.44859 19.9433 4.05039C19.7933 3.64378 19.5712 3.29174 19.2768 2.99426C18.991 2.68838 18.6541 2.45408 18.2661 2.29138C17.8781 2.12867 17.4516 2.04607 16.9866 2.04359C16.5301 2.04114 16.1069 2.1192 15.7172 2.27774C15.3274 2.43629 14.9838 2.66695 14.6863 2.96971C14.3973 3.26407 14.1713 3.61372 14.0086 4.01865C13.8458 4.41514 13.7632 4.85009 13.7606 5.32352C13.7581 5.79695 13.8361 6.23699 13.9945 6.64365C14.153 7.0503 14.3751 7.40234 14.661 7.69977C14.9553 7.99725 15.2964 8.23157 15.6844 8.40273C16.0725 8.56544 16.4947 8.64801 16.9512 8.65045ZM23.8191 10.1075L23.8696 0.660067L27.3823 0.678853C28.0248 0.682289 28.5906 0.803675 29.0797 1.04301C29.5772 1.27394 29.9643 1.61418 30.2409 2.06374C30.5175 2.50485 30.6542 3.04243 30.6508 3.67648C30.6473 4.32745 30.4879 4.88035 30.1727 5.3352C29.8659 5.79009 29.4498 6.12604 28.9245 6.34304L31.0727 10.1463L29.1198 10.1359L26.8213 5.97672L27.9338 6.6421L25.5624 6.62942L25.5437 10.1167L23.8191 10.1075ZM25.5705 5.10769L27.3839 5.11738C27.6967 5.11906 27.9676 5.06132 28.1965 4.94419C28.4254 4.8186 28.6039 4.64624 28.7319 4.42711C28.8598 4.20798 28.9246 3.9547 28.9261 3.66726C28.9277 3.37137 28.8657 3.1174 28.74 2.90537C28.6144 2.68489 28.4377 2.51486 28.2101 2.39528C27.9825 2.26725 27.7123 2.2024 27.3995 2.20072L25.5861 2.19103L25.5705 5.10769ZM32.5993 10.1545L32.6498 0.707023L38.927 0.740592L38.9188 2.26233L34.3663 2.23798L34.3534 4.66008L38.6523 4.68307L38.6441 6.2048L34.3452 6.18181L34.3321 8.64195L38.8846 8.6663L38.8765 10.188L32.5993 10.1545ZM40.5374 10.1969L40.5879 0.749474L41.9321 0.756663L47.0939 7.78445L46.3957 7.92021L46.4339 0.780738L48.1585 0.789961L48.108 10.2374L46.7511 10.2301L41.6657 3.15204L42.3005 3.01594L42.262 10.2061L40.5374 10.1969ZM52.007 10.2583L52.0494 2.33255L49.6019 2.31946L49.61 0.797723L56.2042 0.832988L56.1961 2.35472L53.7867 2.34184L53.7443 10.2675L52.007 10.2583Z" fill="#3563E9"/>
</svg>
